<svg width="20" height="17" viewBox="0 0 20 17" fill="none" xmlns="http://www.w3.org/2000/svg">
<path d="M19.0909 6.25184H14.7364L10.7545 0.376186C10.5818 0.125395 10.2909 0 10 0C9.70909 0 9.41818 0.125395 9.24545 0.385142L5.26364 6.25184H0.909091C0.409091 6.25184 0 6.6549 0 7.14752C0 7.22814 0.00909088 7.30875 0.0363636 7.38936L2.34545 15.6923C2.55455 16.4447 3.25455 17 4.09091 17H15.9091C16.7455 17 17.4455 16.4447 17.6636 15.6923L19.9727 7.38936L20 7.14752C20 6.6549 19.5909 6.25184 19.0909 6.25184ZM10 2.48999L12.5455 6.25184H7.45455L10 2.48999ZM15.9091 15.2086L4.1 15.2176L2.1 8.0432H17.9091L15.9091 15.2086Z" fill="#111111"/>
</svg>
